<svg width="40" height="40" fill="none" xmlns="http://www.w3.org/2000/svg"><path d="M19.999 37.916c-9.884 0-17.917-8.033-17.917-17.916 0-9.884 8.033-17.917 17.917-17.917 9.883 0 17.916 8.033 17.916 17.917 0 9.883-8.033 17.916-17.916 17.916zm0-33.333C11.499 4.583 4.582 11.5 4.582 20s6.917 15.416 15.417 15.416S35.415 28.5 35.415 20 28.5 4.583 20 4.583z" fill="#F41E44"/><path d="M15.285 25.966c-.317 0-.633-.116-.883-.366a1.257 1.257 0 010-1.767l9.433-9.433a1.258 1.258 0 011.767 0 1.258 1.258 0 010 1.766L16.168 25.6c-.233.25-.566.366-.883.366z" fill="#F41E44"/><path d="M24.718 25.966c-.316 0-.633-.116-.883-.366l-9.433-9.434a1.257 1.257 0 010-1.766 1.257 1.257 0 011.766 0l9.434 9.433a1.258 1.258 0 010 1.767c-.25.25-.567.366-.884.366z" fill="#F41E44"/></svg>