<svg width="35" height="35" viewBox="0 0 35 35" fill="none" xmlns="http://www.w3.org/2000/svg">
<path d="M22.2547 32.4479H12.7464C5.58594 32.4479 2.52344 29.3854 2.52344 22.225V22.0354C2.52344 15.5604 5.07552 12.4396 10.7922 11.9C11.3755 11.8562 11.9297 12.2937 11.988 12.8917C12.0464 13.4896 11.6089 14.0292 10.9964 14.0875C6.41719 14.5104 4.71094 16.6687 4.71094 22.05V22.2396C4.71094 28.175 6.81094 30.275 12.7464 30.275H22.2547C28.1901 30.275 30.2901 28.175 30.2901 22.2396V22.05C30.2901 16.6396 28.5547 14.4812 23.888 14.0875C23.2901 14.0292 22.838 13.5042 22.8964 12.9062C22.9547 12.3083 23.4651 11.8562 24.0776 11.9146C29.8818 12.4104 32.4776 15.5458 32.4776 22.0646V22.2542C32.4776 29.3854 29.4151 32.4479 22.2547 32.4479Z" fill="#4D5979"/>
<path d="M17.5 22.7936C16.9021 22.7936 16.4062 22.2978 16.4062 21.6998V2.9165C16.4062 2.31859 16.9021 1.82275 17.5 1.82275C18.0979 1.82275 18.5938 2.31859 18.5938 2.9165V21.6998C18.5938 22.3123 18.0979 22.7936 17.5 22.7936Z" fill="#4D5979"/>
<path d="M17.499 24.4272C17.2219 24.4272 16.9448 24.3251 16.726 24.1063L11.8406 19.2209C11.4177 18.798 11.4177 18.098 11.8406 17.6751C12.2635 17.2522 12.9635 17.2522 13.3865 17.6751L17.499 21.7876L21.6115 17.6751C22.0344 17.2522 22.7344 17.2522 23.1573 17.6751C23.5802 18.098 23.5802 18.798 23.1573 19.2209L18.2719 24.1063C18.0531 24.3251 17.776 24.4272 17.499 24.4272Z" fill="#4D5979"/>
</svg>
