<svg width="34" height="34" fill="none" xmlns="http://www.w3.org/2000/svg"><path d="M15.286 21.49a1.06 1.06 0 01-.75-.31l-3.429-3.43c-.41-.41-.41-1.09 0-1.5a1.067 1.067 0 011.502 0l2.677 2.677 6.092-6.092a1.07 1.07 0 011.502 0c.41.41.41 1.09 0 1.502l-6.843 6.842a1.061 1.061 0 01-.75.312z" fill="#F41E44"/><path d="M17 32.23c-.893 0-1.786-.298-2.48-.893l-2.238-1.927c-.227-.198-.793-.396-1.09-.396H8.753a3.797 3.797 0 01-3.796-3.797v-2.423c0-.297-.199-.85-.397-1.076l-1.91-2.253c-1.162-1.374-1.162-3.541 0-4.916l1.912-2.252c.198-.227.397-.78.397-1.077V8.783c0-2.096 1.7-3.796 3.796-3.796h2.451c.298 0 .864-.213 1.091-.397l2.238-1.926c1.389-1.19 3.556-1.19 4.945 0l2.238 1.926c.227.199.793.397 1.09.397h2.41c2.096 0 3.796 1.7 3.796 3.796v2.409c0 .297.212.864.41 1.09l1.927 2.239c1.19 1.388 1.19 3.556 0 4.944l-1.926 2.238c-.199.227-.411.794-.411 1.091v2.409c0 2.096-1.7 3.796-3.797 3.796h-2.408c-.298 0-.864.213-1.091.397l-2.238 1.927c-.695.609-1.587.906-2.48.906zM8.753 7.111c-.92 0-1.671.75-1.671 1.671v2.423c0 .808-.383 1.842-.907 2.45L4.264 15.91c-.496.581-.496 1.587 0 2.168l1.912 2.252c.524.624.907 1.644.907 2.451v2.423c0 .92.75 1.671 1.671 1.671h2.451c.822 0 1.856.383 2.48.921l2.238 1.927c.58.496 1.6.496 2.181 0l2.239-1.927c.623-.524 1.657-.92 2.479-.92h2.408c.921 0 1.672-.752 1.672-1.672v-2.409c0-.821.382-1.855.92-2.479l1.927-2.238c.496-.581.496-1.601 0-2.182l-1.926-2.238c-.539-.623-.921-1.658-.921-2.48V8.785c0-.921-.75-1.672-1.672-1.672h-2.408c-.822 0-1.856-.383-2.48-.921l-2.238-1.927c-.58-.496-1.6-.496-2.181 0l-2.239 1.941c-.623.524-1.671.907-2.479.907h-2.45z" fill="#F41E44"/></svg>