<svg width="54" height="76" viewBox="0 0 54 76" fill="none" xmlns="http://www.w3.org/2000/svg">
<path d="M27 0.5C12.4875 0.5 0.75 12.2375 0.75 26.75C0.75 46.4375 27 75.5 27 75.5C27 75.5 53.25 46.4375 53.25 26.75C53.25 12.2375 41.5125 0.5 27 0.5ZM27 36.125C24.5136 36.125 22.129 35.1373 20.3709 33.3791C18.6127 31.621 17.625 29.2364 17.625 26.75C17.625 24.2636 18.6127 21.879 20.3709 20.1209C22.129 18.3627 24.5136 17.375 27 17.375C29.4864 17.375 31.871 18.3627 33.6291 20.1209C35.3873 21.879 36.375 24.2636 36.375 26.75C36.375 29.2364 35.3873 31.621 33.6291 33.3791C31.871 35.1373 29.4864 36.125 27 36.125Z" fill="#F41E44"/>
</svg>
