<svg width="80" height="84" fill="none" xmlns="http://www.w3.org/2000/svg"><g filter="url(#filter0_di_193_6746)"><path d="M48.273 37.098c-.924-.273-1.694.123-2.377.467-.698.355-2.047 1.33-2.761 1.007-3.646-1.848-6.95-5.465-8.22-9.439-.22-.787.9-2.036 1.335-2.707.422-.65.898-1.388.768-2.371-.117-.883-2.192-4.01-2.941-4.877-.495-.573-1.018-.906-1.572-.992-2.087-.239-4.616 2.467-5.072 3.125-1.124 1.392-1.247 3.34-.364 5.774 2.084 6.518 10.922 16.752 16.945 19.853 1.108.63 2.136.978 3.076 1.044.92.064 1.756-.142 2.494-.616.552-.277 3.627-2.595 3.697-4.809-.009-.566-.258-1.148-.737-1.73-.73-.886-3.442-3.489-4.271-3.73" fill="#F41E44"/></g><defs><filter id="filter0_di_193_6746" x=".142" y=".607" width="79.484" height="82.513" filterUnits="userSpaceOnUse" color-interpolation-filters="sRGB"><feFlood flood-opacity="0" result="BackgroundImageFix"/><feColorMatrix in="SourceAlpha" values="0 0 0 0 0 0 0 0 0 0 0 0 0 0 0 0 0 0 127 0" result="hardAlpha"/><feOffset dy="8.782"/><feGaussianBlur stdDeviation="13.173"/><feComposite in2="hardAlpha" operator="out"/><feColorMatrix values="0 0 0 0 1 0 0 0 0 0.517647 0 0 0 0 0.294118 0 0 0 0.3 0"/><feBlend in2="BackgroundImageFix" result="effect1_dropShadow_193_6746"/><feBlend in="SourceGraphic" in2="effect1_dropShadow_193_6746" result="shape"/><feColorMatrix in="SourceAlpha" values="0 0 0 0 0 0 0 0 0 0 0 0 0 0 0 0 0 0 127 0" result="hardAlpha"/><feOffset dx=".5" dy=".5"/><feGaussianBlur stdDeviation="2.635"/><feComposite in2="hardAlpha" operator="arithmetic" k2="-1" k3="1"/><feColorMatrix values="0 0 0 0 1 0 0 0 0 1 0 0 0 0 1 0 0 0 0.2 0"/><feBlend in2="shape" result="effect2_innerShadow_193_6746"/></filter></defs></svg>