<svg width="34" height="34" fill="none" xmlns="http://www.w3.org/2000/svg"><path d="M26.56 21.454c-1.054-.302-1.934.137-2.712.52-.798.394-2.336 1.478-3.152 1.118-4.16-2.053-7.931-6.073-9.382-10.489-.249-.874 1.028-2.262 1.525-3.008.481-.722 1.025-1.543.877-2.635-.135-.982-2.503-4.456-3.358-5.42C9.794.903 9.198.534 8.565.437 6.183.172 3.297 3.18 2.777 3.911c-1.283 1.547-1.424 3.712-.416 6.417C4.739 17.57 14.825 28.944 21.699 32.39c1.265.7 2.438 1.087 3.51 1.16 1.05.07 2.004-.158 2.847-.685.63-.308 4.14-2.884 4.22-5.343-.01-.63-.295-1.277-.842-1.923-.832-.986-3.928-3.877-4.875-4.145z" fill="#F41E44"/></svg>