<svg width="142" height="54" fill="none" xmlns="http://www.w3.org/2000/svg"><path d="M62.18 36l5.1-12.21L62.3 11.7h5.01l4.23 11.37h.24V11.7h4.26v11.37h.27l4.23-11.37h5.01l-4.98 12.09L85.67 36h-4.8l-4.56-11.79h-.27V36h-4.26V24.21h-.24L66.98 36h-4.8zm27.958 0V11.7h4.23v13.92l6.21-13.92h3.48V36h-4.32V21.84L93.408 36h-3.27zm22.195 0V15.69h-3.66V11.7h12.69v3.99h-3.63V36h-5.4zm13.659 0V11.7h5.37v10.26h1.2c1.52 0 2.81.25 3.87.75a5.23 5.23 0 012.43 2.31c.56 1.02.84 2.34.84 3.96 0 1.48-.2 2.68-.6 3.6-.38.92-.92 1.63-1.62 2.13-.7.5-1.52.84-2.46 1.02-.92.18-1.91.27-2.97.27h-6.06zm5.37-3.51h.72c.68 0 1.21-.13 1.59-.39.4-.26.68-.66.84-1.2.18-.54.26-1.22.24-2.04-.02-.9-.21-1.65-.57-2.25-.34-.62-1.06-.93-2.16-.93h-.66v6.81zM69.872 51h-2.088v-6.228h-2.868V51H62.84v-8.004h7.032V51zm10.147-3.996c0 1.184-.42 2.18-1.26 2.988-.832.792-1.884 1.188-3.156 1.188-1.272 0-2.324-.396-3.156-1.188-.84-.808-1.26-1.804-1.26-2.988 0-.552.104-1.092.312-1.62.216-.528.532-.988.948-1.38.832-.792 1.884-1.188 3.156-1.188 1.272 0 2.324.396 3.156 1.188.416.392.728.852.936 1.38.216.528.324 1.068.324 1.62zm-4.416-2.172c-.656 0-1.196.212-1.62.636-.424.416-.636.94-.636 1.572 0 .584.212 1.08.636 1.488.44.424.98.636 1.62.636.656 0 1.192-.208 1.608-.624a2.1 2.1 0 00.648-1.536c0-.608-.216-1.12-.648-1.536a2.257 2.257 0 00-1.608-.636zm5.5 3.744V46.98h3.037v1.596h-3.036zm6.547-5.58v2.988h3v-2.988h2.088V51H90.65v-3.24h-3V51h-2.076v-8.004h2.076zm15.244 4.008c0 1.184-.42 2.18-1.26 2.988-.832.792-1.884 1.188-3.156 1.188-1.272 0-2.324-.396-3.156-1.188-.84-.808-1.26-1.804-1.26-2.988 0-.552.104-1.092.312-1.62.216-.528.532-.988.948-1.38.832-.792 1.884-1.188 3.156-1.188 1.272 0 2.324.396 3.156 1.188.416.392.728.852.936 1.38.216.528.324 1.068.324 1.62zm-4.416-2.172c-.656 0-1.196.212-1.62.636-.424.416-.636.94-.636 1.572 0 .584.212 1.08.636 1.488.44.424.98.636 1.62.636.656 0 1.192-.208 1.608-.624a2.1 2.1 0 00.648-1.536c0-.608-.216-1.12-.648-1.536a2.257 2.257 0 00-1.608-.636zM107.555 51h-3.336v-8.004h3.096c.792 0 1.376.208 1.752.624.328.36.492.86.492 1.5 0 .352-.076.68-.228.984-.16.296-.376.504-.648.624.448.048.812.208 1.092.48.36.344.54.832.54 1.464 0 .656-.196 1.18-.588 1.572-.488.504-1.212.756-2.172.756zm-1.26-6.408v1.56h.384c.368 0 .632-.084.792-.252.128-.128.192-.304.192-.528a.783.783 0 00-.192-.54c-.16-.16-.424-.24-.792-.24h-.384zm0 3.108v1.68h.468c.672 0 1.1-.108 1.284-.324.112-.128.168-.3.168-.516 0-.248-.068-.44-.204-.576-.176-.176-.604-.264-1.284-.264h-.432zm13.814-.696c0 1.184-.42 2.18-1.26 2.988-.832.792-1.884 1.188-3.156 1.188-1.272 0-2.324-.396-3.156-1.188-.84-.808-1.26-1.804-1.26-2.988 0-.552.104-1.092.312-1.62.216-.528.532-.988.948-1.38.832-.792 1.884-1.188 3.156-1.188 1.272 0 2.324.396 3.156 1.188.416.392.728.852.936 1.38.216.528.324 1.068.324 1.62zm-4.416-2.172c-.656 0-1.196.212-1.62.636-.424.416-.636.94-.636 1.572 0 .584.212 1.08.636 1.488.44.424.98.636 1.62.636.656 0 1.192-.208 1.608-.624a2.1 2.1 0 00.648-1.536c0-.608-.216-1.12-.648-1.536a2.257 2.257 0 00-1.608-.636zM123.138 51h-2.064l1.356-8.004h2.052l1.62 4.272 1.716-4.272h2.076l1.2 8.004h-2.076l-.588-4.608L126.498 51h-.828l-1.848-4.608-.684 4.608zm8.436-8.004h2.328l1.524 3.564 1.332-3.564h2.22l-3.6 8.004h-2.196l1.116-2.244-2.724-5.76z" fill="#31343C"/><path d="M24.739 42.8c-.437-4.54-6.142-12.656-9.878-16.224-.081-.077.008-.212.111-.167 4.833 2.11 8.603 5.153 10.783 6.785.37.276.883.256 1.183-.094 1.873-2.19 3.06-6.607 3.503-9.017.019-.102.161-.111.191-.011 2.235 7.46-1.116 17.996-3.007 23.713l-3.732.561s1.195-1.917.846-5.547z" fill="#F41E44"/><ellipse rx="2.887" ry="3.226" transform="rotate(-13.815 120.476 -86.649) skewX(-.206)" fill="#F41E44"/><path d="M3.703 37.041a.25.25 0 00-.127.349c4.018 7.592 11.603 12.72 20.309 12.72 12.921 0 23.364-11.292 23.364-25.18 0-.144 0-.287-.003-.429a.25.25 0 00-.5 0c-.21 12.992-10.543 23.447-23.247 23.447-8.15 0-15.322-4.302-19.475-10.817a.25.25 0 00-.305-.098l-.016.007z" fill="#F41E44" stroke="#F41E44" stroke-width=".5" stroke-linejoin="round"/><path d="M11.131 12.467c.66 1.33 4.123 2.77 5.772 3.324.55-1.108 1.32-3.822 0-5.817-1.319-1.994-4.122-2.77-5.36-2.909-.412 1.247-1.071 4.072-.412 5.402z" fill="#F41E44"/><path d="M15.556 14.239c.28.528.874.987 1.136 1.151-.117-.484-.463-1.647-.917-2.425-.454-.778-.873-.988-1.026-.995.153.536.528 1.741.807 2.269z" fill="#F4F7FA"/><path d="M4.265 27.602c1.433.355 4.765-1.372 6.251-2.28-.482-1.14-2.036-3.488-4.398-3.767-2.362-.278-4.764 1.373-5.67 2.233.676 1.124 2.385 3.46 3.817 3.814z" fill="#F41E44"/><path d="M8.47 25.35c.58.128 1.312-.03 1.605-.125-.441-.225-1.545-.712-2.427-.867-.882-.155-1.312.031-1.417.144.505.23 1.659.722 2.239.849z" fill="#F4F7FA"/><path d="M14.146 42.24c.935-1.15.824-4.925.651-6.668-1.228-.053-4 .349-5.267 2.378-1.267 2.028-.824 4.924-.444 6.118 1.298-.13 4.126-.678 5.06-1.828z" fill="#F41E44"/><path d="M13.943 37.447c.363-.473.537-1.207.578-1.515-.39.305-1.303 1.099-1.822 1.834-.518.736-.537 1.207-.481 1.35.423-.359 1.361-1.197 1.725-1.67z" fill="#F4F7FA"/><path d="M39.446 34.687c-1.174-.9-4.913-.652-6.635-.416-.008 1.239.49 4.017 2.547 5.22 2.058 1.203 4.913.652 6.083.226-.175-1.302-.82-4.13-1.995-5.03z" fill="#F41E44"/><path d="M34.701 35.065c-.482-.35-1.216-.498-1.523-.529.317.383 1.137 1.273 1.885 1.77.748.495 1.216.497 1.356.436-.372-.414-1.236-1.328-1.718-1.677z" fill="#F4F7FA"/><path d="M25.232 8.015c-.79 1.256-.227 4.989.154 6.698 1.225-.097 3.93-.834 4.943-3.002 1.014-2.169.227-4.989-.294-6.128-1.272.287-4.014 1.176-4.803 2.432z" fill="#F41E44"/><path d="M26.01 12.747c-.305.514-.39 1.263-.393 1.574.351-.35 1.161-1.25 1.588-2.043.427-.793.388-1.263.316-1.4-.377.41-1.208 1.355-1.512 1.869z" fill="#F4F7FA"/><path d="M37.757 16.412c-1.38.524-3.16 3.847-3.876 5.443 1.037.665 3.637 1.717 5.741.6 2.105-1.117 3.16-3.847 3.424-5.073-1.188-.542-3.908-1.495-5.289-.97z" fill="#F41E44"/><path d="M35.553 20.663c-.55.226-1.065.774-1.253 1.02.49-.067 1.673-.294 2.488-.669.815-.375 1.065-.773 1.088-.926-.546.098-1.773.35-2.323.575z" fill="#F4F7FA"/><path d="M14.43 20.776c-3.71 0-3.847-2.355-3.71-3.324.55-.139 1.567-.665 2.886 0 1.32.665 1.237 2.631.825 3.324zm-.766 10.513c-1.132 3.561-3.399 2.974-4.273 2.547.037-.57-.15-1.707.88-2.77 1.031-1.064 2.864-.384 3.393.223zm6.365 5.533c1.121 3.564-1.064 4.408-2.023 4.569-.297-.486-1.102-1.304-.872-2.773.23-1.468 2.115-1.983 2.895-1.796zm.799-20.771c-2.666-2.601-1.14-4.39-.371-4.99.49.287 1.584.621 2.073 2.024.489 1.402-.928 2.758-1.702 2.966zm8.867 1.846c.133-3.737 2.473-3.791 3.429-3.618.118.558.603 1.602-.103 2.907-.707 1.305-2.654 1.151-3.326.711zm4.359 8.567c3.39-1.52 4.465.575 4.73 1.517-.445.351-1.162 1.249-2.636 1.182-1.473-.067-2.191-1.897-2.094-2.699z" fill="#F41E44"/></svg>