<svg width="156" height="58" fill="none" xmlns="http://www.w3.org/2000/svg"><path d="M76.18 38.006l5.1-12.21-4.98-12.09h5.01l4.23 11.37h.24v-11.37h4.26v11.37h.27l4.23-11.37h5.01l-4.98 12.09 5.1 12.21h-4.8l-4.56-11.79h-.27v11.79h-4.26v-11.79h-.24l-4.56 11.79h-4.8zm27.958 0v-24.3h4.23v13.92l6.21-13.92h3.48v24.3h-4.32v-14.16l-6.33 14.16h-3.27zm22.195 0v-20.31h-3.66v-3.99h12.69v3.99h-3.63v20.31h-5.4zm13.659 0v-24.3h5.37v10.26h1.2c1.52 0 2.81.25 3.87.75a5.23 5.23 0 012.43 2.31c.56 1.02.84 2.34.84 3.96 0 1.48-.2 2.68-.6 3.6-.38.92-.92 1.63-1.62 2.13-.7.5-1.52.84-2.46 1.02-.92.18-1.91.27-2.97.27h-6.06zm5.37-3.51h.72c.68 0 1.21-.13 1.59-.39.4-.26.68-.66.84-1.2.18-.54.26-1.22.24-2.04-.02-.9-.21-1.65-.57-2.25-.34-.62-1.06-.93-2.16-.93h-.66v6.81zm-61.49 18.51h-2.088v-6.228h-2.868v6.228H76.84v-8.004h7.032v8.004zm10.147-3.996c0 1.184-.42 2.18-1.26 2.988-.832.792-1.884 1.188-3.156 1.188-1.272 0-2.324-.396-3.156-1.188-.84-.808-1.26-1.804-1.26-2.988 0-.552.104-1.092.312-1.62.216-.528.532-.988.948-1.38.832-.792 1.884-1.188 3.156-1.188 1.272 0 2.324.396 3.156 1.188.416.392.728.852.936 1.38.216.528.324 1.068.324 1.62zm-4.416-2.172c-.656 0-1.196.212-1.62.636-.424.416-.636.94-.636 1.572 0 .584.212 1.08.636 1.488.44.424.98.636 1.62.636.656 0 1.192-.208 1.608-.624a2.1 2.1 0 00.648-1.536c0-.608-.216-1.12-.648-1.536a2.257 2.257 0 00-1.608-.636zm5.5 3.744v-1.596h3.037v1.596h-3.036zm6.547-5.58v2.988h3v-2.988h2.088v8.004h-2.088v-3.24h-3v3.24h-2.076v-8.004h2.076zm15.244 4.008c0 1.184-.42 2.18-1.26 2.988-.832.792-1.884 1.188-3.156 1.188-1.272 0-2.324-.396-3.156-1.188-.84-.808-1.26-1.804-1.26-2.988 0-.552.104-1.092.312-1.62.216-.528.532-.988.948-1.38.832-.792 1.884-1.188 3.156-1.188 1.272 0 2.324.396 3.156 1.188.416.392.728.852.936 1.38.216.528.324 1.068.324 1.62zm-4.416-2.172c-.656 0-1.196.212-1.62.636-.424.416-.636.94-.636 1.572 0 .584.212 1.08.636 1.488.44.424.98.636 1.62.636.656 0 1.192-.208 1.608-.624a2.1 2.1 0 00.648-1.536c0-.608-.216-1.12-.648-1.536a2.257 2.257 0 00-1.608-.636zm9.077 6.168h-3.336v-8.004h3.096c.792 0 1.376.208 1.752.624.328.36.492.86.492 1.5 0 .352-.076.68-.228.984-.16.296-.376.504-.648.624.448.048.812.208 1.092.48.36.344.54.832.54 1.464 0 .656-.196 1.18-.588 1.572-.488.504-1.212.756-2.172.756zm-1.26-6.408v1.56h.384c.368 0 .632-.084.792-.252.128-.128.192-.304.192-.528a.783.783 0 00-.192-.54c-.16-.16-.424-.24-.792-.24h-.384zm0 3.108v1.68h.468c.672 0 1.1-.108 1.284-.324.112-.128.168-.3.168-.516 0-.248-.068-.44-.204-.576-.176-.176-.604-.264-1.284-.264h-.432zm13.814-.696c0 1.184-.42 2.18-1.26 2.988-.832.792-1.884 1.188-3.156 1.188-1.272 0-2.324-.396-3.156-1.188-.84-.808-1.26-1.804-1.26-2.988 0-.552.104-1.092.312-1.62.216-.528.532-.988.948-1.38.832-.792 1.884-1.188 3.156-1.188 1.272 0 2.324.396 3.156 1.188.416.392.728.852.936 1.38.216.528.324 1.068.324 1.62zm-4.416-2.172c-.656 0-1.196.212-1.62.636-.424.416-.636.94-.636 1.572 0 .584.212 1.08.636 1.488.44.424.98.636 1.62.636.656 0 1.192-.208 1.608-.624a2.1 2.1 0 00.648-1.536c0-.608-.216-1.12-.648-1.536a2.257 2.257 0 00-1.608-.636zm7.445 6.168h-2.064l1.356-8.004h2.052l1.62 4.272 1.716-4.272h2.076l1.2 8.004h-2.076l-.588-4.608-1.932 4.608h-.828l-1.848-4.608-.684 4.608zm8.436-8.004h2.328l1.524 3.564 1.332-3.564h2.22l-3.6 8.004h-2.196l1.116-2.244-2.724-5.76z" fill="#31343C"/><path d="M31.58 48.028c-.562-5.811-7.958-16.24-12.724-20.714-.083-.077.005-.213.109-.169 6.374 2.74 11.315 6.762 14.09 8.814.369.273.879.252 1.188-.088 2.504-2.751 4.075-8.63 4.636-11.725.019-.103.161-.112.192-.013 2.918 9.483-1.384 22.938-3.807 30.228l-4.763.713s1.524-2.436 1.079-7.046z" fill="#F41E44"/><ellipse rx="3.685" ry="4.099" transform="rotate(-13.75 127.51 -114.485) skewX(-.073)" fill="#F41E44"/><path d="M4.754 40.779a.25.25 0 00-.127.349c5.12 9.623 14.78 16.122 25.865 16.122 16.451 0 29.758-14.307 29.758-31.917 0-.181-.002-.362-.004-.543a.25.25 0 00-.5 0C59.478 41.326 46.258 54.639 30 54.639c-10.43 0-19.608-5.478-24.92-13.772a.25.25 0 00-.305-.097l-.021.008z" fill="#F41E44" stroke="#F41E44" stroke-width=".5" stroke-linejoin="round"/><path d="M14.21 9.5c.843 1.69 5.264 3.52 7.37 4.223.7-1.407 1.683-4.856 0-7.389-1.685-2.533-5.264-3.518-6.843-3.694-.526 1.583-1.368 5.172-.526 6.86z" fill="#F41E44"/><path d="M19.859 11.75c.356.67 1.114 1.255 1.449 1.463-.149-.615-.59-2.093-1.17-3.08-.58-.989-1.115-1.255-1.31-1.264.195.681.674 2.212 1.03 2.882z" fill="#F4F7FA"/><path d="M5.445 28.728c1.829.45 6.082-1.743 7.98-2.896-.615-1.448-2.599-4.432-5.615-4.785-3.015-.354-6.082 1.743-7.238 2.835.863 1.428 3.044 4.395 4.873 4.846z" fill="#F41E44"/><path d="M10.813 25.869c.74.161 1.675-.04 2.05-.16-.564-.285-1.973-.904-3.1-1.101-1.125-.198-1.674.04-1.808.182.644.292 2.118.917 2.858 1.079z" fill="#F4F7FA"/><path d="M18.058 47.32c1.192-1.461 1.05-6.255.83-8.47-1.567-.066-5.107.444-6.724 3.02-1.618 2.578-1.051 6.256-.566 7.773 1.656-.166 5.266-.862 6.46-2.323z" fill="#F41E44"/><path d="M17.797 41.231c.464-.6.686-1.532.739-1.924-.5.388-1.664 1.396-2.326 2.33-.663.935-.686 1.533-.615 1.716.54-.457 1.738-1.521 2.202-2.122z" fill="#F4F7FA"/><path d="M50.357 37.725c-1.499-1.143-6.271-.828-8.47-.528-.01 1.574.626 5.103 3.252 6.63 2.626 1.529 6.271.829 7.765.288-.224-1.654-1.048-5.247-2.547-6.39z" fill="#F41E44"/><path d="M44.299 38.205c-.615-.443-1.552-.632-1.944-.67.404.486 1.45 1.616 2.406 2.246.955.63 1.552.632 1.731.554-.475-.525-1.578-1.686-2.193-2.13z" fill="#F4F7FA"/><path d="M32.21 3.848c-1.007 1.595-.288 6.337.197 8.508 1.565-.124 5.017-1.06 6.312-3.814 1.294-2.754.288-6.336-.376-7.783-1.624.365-5.124 1.494-6.132 3.09z" fill="#F41E44"/><path d="M33.204 9.86c-.389.653-.496 1.605-.501 2 .448-.445 1.482-1.587 2.027-2.595.545-1.008.496-1.605.404-1.777-.482.519-1.542 1.72-1.93 2.373z" fill="#F4F7FA"/><path d="M48.203 14.514c-1.763.666-4.034 4.887-4.949 6.914 1.324.845 4.643 2.181 7.33.763 2.686-1.419 4.032-4.887 4.37-6.443-1.517-.689-4.99-1.9-6.752-1.233z" fill="#F41E44"/><path d="M45.389 19.916c-.702.286-1.36.982-1.6 1.294.625-.085 2.136-.373 3.176-.849s1.36-.982 1.389-1.176c-.696.124-2.264.444-2.965.73z" fill="#F4F7FA"/><path d="M18.42 20.056c-4.736 0-4.911-2.991-4.736-4.222.702-.176 2-.845 3.684 0 1.684.844 1.58 3.342 1.053 4.222zm-.978 13.354c-1.445 4.524-4.339 3.779-5.455 3.235.047-.724-.191-2.167 1.124-3.518 1.316-1.35 3.657-.488 4.331.283zm8.126 7.028c1.432 4.528-1.358 5.6-2.582 5.804-.38-.617-1.407-1.656-1.113-3.521.293-1.865 2.7-2.52 3.695-2.282zm1.022-26.383c-3.404-3.304-1.455-5.575-.475-6.337.626.363 2.023.788 2.647 2.57.624 1.781-1.184 3.502-2.173 3.767zM37.908 16.4c.17-4.747 3.157-4.816 4.377-4.596.15.71.77 2.034-.131 3.692-.902 1.658-3.388 1.463-4.246.904zm5.564 10.882c4.328-1.932 5.7.73 6.04 1.926-.57.447-1.485 1.587-3.366 1.502-1.882-.085-2.798-2.41-2.674-3.428z" fill="#F41E44"/></svg>